<?xml version="1.0" standalone="no"?><!DOCTYPE svg PUBLIC "-//W3C//DTD SVG 1.1//EN" "http://www.w3.org/Graphics/SVG/1.1/DTD/svg11.dtd"><svg t="1605015671429" class="icon" viewBox="0 0 1024 1024" version="1.1" xmlns="http://www.w3.org/2000/svg" p-id="1058" xmlns:xlink="http://www.w3.org/1999/xlink" width="200" height="200"><defs><style type="text/css"></style></defs><path d="M128 64a64 64 0 0 0-128 0v960h128V64z" fill="#434854" p-id="1059"></path><path d="M128 64h896v576H128z" fill="#EF4D4D" p-id="1060"></path><path d="M128 64h32v576H128z" fill="" p-id="1061"></path><path d="M288 128l-30.016 65.984L192 206.016l48 48L228.032 320 288 289.984l59.968 30.016-11.968-65.984 48-48-65.984-12.032zM460 192L480 182.016l20 9.984-4-22.016 16-16-22.016-3.968L480 128l-9.984 22.016-22.016 3.968 16 16zM544 249.984l-22.016-3.968L512 224l-9.984 22.016-22.016 3.968 16 16-4 22.016 20-9.984 20 9.984-4-22.016zM457.984 342.016L448 320l-9.984 22.016-22.016 3.968 16 16-4 22.016 20-9.984 20 9.984-4-22.016 16-16zM361.984 406.016L352 384l-9.984 22.016-22.016 3.968 16 16-4 22.016 20-9.984 20 9.984-4-22.016 16-16z" fill="#EACA44" p-id="1062"></path></svg>