<?xml version="1.0" standalone="no"?><!DOCTYPE svg PUBLIC "-//W3C//DTD SVG 1.1//EN" "http://www.w3.org/Graphics/SVG/1.1/DTD/svg11.dtd"><svg t="1605015704615" class="icon" viewBox="0 0 1024 1024" version="1.1" xmlns="http://www.w3.org/2000/svg" p-id="1473" xmlns:xlink="http://www.w3.org/1999/xlink" width="200" height="200"><defs><style type="text/css"></style></defs><path d="M128 64a64 64 0 0 0-128 0v960h128V64z" fill="#434854" p-id="1474"></path><path d="M128 64h864v576H128z" fill="#EAEAEA" p-id="1475"></path><path d="M128 64h32v576H128z" fill="" p-id="1476"></path><path d="M560 368m-112 0a112 112 0 1 0 224 0 112 112 0 1 0-224 0Z" fill="#EF4D4D" p-id="1477"></path><path d="M671.712 362.272zM672 368c0-1.952-0.192-3.808-0.288-5.728a56 56 0 0 0-111.712 5.728 56 56 0 0 1-111.712 5.728A111.936 111.936 0 0 0 672 368z" fill="#469FCC" p-id="1478"></path><path d="M375.712 282.176a16 16 0 0 0 22.624 0l45.248-45.248a16 16 0 0 0-22.624-22.624l-45.248 45.248a16 16 0 0 0 0 22.624zM353.088 236.896l45.248-45.248a16 16 0 0 0-22.624-22.624l-45.248 45.248a16 16 0 0 0 22.624 22.624zM398.336 453.824a16 16 0 0 0-22.624 22.624l45.248 45.248a16 16 0 0 0 22.624-22.624l-45.248-45.248zM353.056 499.072a16 16 0 0 0-22.624 22.624l45.248 45.248a16 16 0 0 0 22.624-22.624l-45.248-45.248z" fill="#434854" p-id="1479"></path><path d="M744.576 453.792a16 16 0 0 0-22.624 0l-45.248 45.248a16 16 0 0 0 22.624 22.624l45.248-45.248a16 16 0 0 0 0-22.624zM767.2 499.072l-45.248 45.248a16 16 0 0 0 22.624 22.624l45.248-45.248a16 16 0 0 0-22.624-22.624zM721.952 282.144a16 16 0 0 0 22.624-22.624l-45.248-45.248a16 16 0 0 0-22.624 22.624l45.248 45.248zM767.232 236.896a16 16 0 0 0 22.624-22.624l-45.248-45.248a16 16 0 0 0-22.624 22.624l45.248 45.248z" fill="#434854" p-id="1480"></path></svg>