<?xml version="1.0" standalone="no"?><!DOCTYPE svg PUBLIC "-//W3C//DTD SVG 1.1//EN" "http://www.w3.org/Graphics/SVG/1.1/DTD/svg11.dtd"><svg t="1605019159933" class="icon" viewBox="0 0 1024 1024" version="1.1" xmlns="http://www.w3.org/2000/svg" p-id="2584" xmlns:xlink="http://www.w3.org/1999/xlink" width="200" height="200"><defs><style type="text/css"></style></defs><path d="M746.709333 935.210667a29.098667 29.098667 0 0 1-15.018666-3.84l-219.306667-115.456-192.981333 103.893333a64.896 64.896 0 0 1-88.618667-27.306667 69.973333 69.973333 0 0 1-6.741333-42.709333l37.546666-221.610667-156.928-158.890666A67.797333 67.797333 0 0 1 85.333333 421.76c0-17.834667 6.954667-34.944 19.328-47.488 10.026667-10.581333 23.253333-17.322667 37.546667-19.242667l215.125333-32.725333 95.744-199.253333c10.922667-23.082667 33.749333-37.717333 58.752-37.717334 25.045333 0 47.829333 14.634667 58.794667 37.674667l96.128 200.106667 215.893333 33.066666c17.322667 2.56 32.938667 12.117333 43.349334 26.624 10.368 14.464 14.634667 32.597333 11.818666 50.346667a68.693333 68.693333 0 0 1-18.773333 38.4l-156.16 157.013333 21.76 119.253334a33.408 33.408 0 0 1-26.666667 38.485333 32.341333 32.341333 0 0 1-37.546666-26.154667l-22.186667-119.253333a69.162667 69.162667 0 0 1 18.773333-60.032l156.586667-158.122667-215.893333-33.493333a64.853333 64.853333 0 0 1-49.152-38.442667L512.426667 151.466667 415.146667 353.877333a64.853333 64.853333 0 0 1-49.152 38.442667l-215.168 32.725333 155.434666 157.738667c15.402667 15.36 22.442667 37.546667 18.773334 59.264l-37.546667 221.610667 193.024-103.509334c19.2-10.752 42.368-10.752 61.568 0l218.88 115.413334c13.269333 7.168 20.096 22.613333 16.554667 37.546666a32.853333 32.853333 0 0 1-31.573334 25.557334l0.768-3.456z" fill="#fe6701" p-id="2585"></path></svg>