<?xml version="1.0" standalone="no"?><!DOCTYPE svg PUBLIC "-//W3C//DTD SVG 1.1//EN" "http://www.w3.org/Graphics/SVG/1.1/DTD/svg11.dtd"><svg t="1605013055183" class="icon" viewBox="0 0 1024 1024" version="1.1" xmlns="http://www.w3.org/2000/svg" p-id="1908" xmlns:xlink="http://www.w3.org/1999/xlink" width="200" height="200"><defs><style type="text/css"></style></defs><path d="M662.442667 85.333333H368.170667C246.784 85.333333 170.666667 170.069333 170.666667 306.005333v561.109334C170.666667 906.624 201.941333 938.666667 240.554667 938.666667c11.690667 0 23.168-2.986667 33.450666-8.661334l239.445334-132.949333 278.826666 133.717333a30.250667 30.250667 0 0 0 23.637334 0.085334 31.274667 31.274667 0 0 0 16.810666-17.066667 32.384 32.384 0 0 0-13.610666-37.632l-276.949334-132.565333a59.093333 59.093333 0 0 0-58.112 0l-239.786666 132.565333a9.002667 9.002667 0 0 1-8.874667 0 9.088 9.088 0 0 1-4.053333-7.893333V306.005333c0.384-100.522667 49.664-157.781333 137.941333-157.781333h294.272c113.28 0 129.834667 94.122667 129.834667 150.613333v25.6h-318.549334a30.208 30.208 0 0 0-21.248 9.984 31.701333 31.701333 0 0 0-8.149333 22.442667c0.384 16.469333 13.312 29.696 29.44 30.122667h317.397333v329.514666c0 17.237333 13.653333 31.232 30.506667 31.232 16.725333 0 30.336-13.738667 30.549333-30.890666V298.837333C853.333333 167.04 780.501333 85.333333 662.442667 85.333333z" fill="#fe6701" p-id="1909"></path></svg>