<?xml version="1.0" standalone="no"?><!DOCTYPE svg PUBLIC "-//W3C//DTD SVG 1.1//EN" "http://www.w3.org/Graphics/SVG/1.1/DTD/svg11.dtd"><svg t="1605015230218" class="icon" viewBox="0 0 1024 1024" version="1.1" xmlns="http://www.w3.org/2000/svg" p-id="1709" xmlns:xlink="http://www.w3.org/1999/xlink" width="200" height="200"><defs><style type="text/css"></style></defs><path d="M512.298667 85.333333c68.992 0 137.813333 17.066667 198.869333 49.237334 208 109.738667 288 368.256 178.346667 576.341333A427.818667 427.818667 0 0 1 511.786667 938.666667a423.509333 423.509333 0 0 1-91.648-10.026667 32 32 0 0 1 13.866666-62.421333c158.933333 35.370667 322.986667-40.917333 398.976-185.088 93.269333-176.896 25.258667-396.757333-151.594666-490.026667a363.690667 363.690667 0 0 0-169.130667-41.856c-200.362667 0-363.050667 162.688-363.050667 362.666667a362.496 362.496 0 0 0 41.088 167.808l8.192 16c10.026667 18.773333 12.245333 42.154667 5.717334 63.274666a730.453333 730.453333 0 0 0-22.613334 69.632c23.978667-7.210667 53.248-17.834667 74.410667-25.557333l8.661333-3.114667a31.914667 31.914667 0 1 1 21.717334 60.074667l-8.533334 3.114667c-31.658667 11.477333-74.922667 27.221333-104.192 33.749333a32.768 32.768 0 0 1-7.552 0.810667c-19.626667 0-31.573333-7.936-38.144-14.634667-10.112-10.24-14.933333-24.661333-14.378666-42.752a32.682667 32.682667 0 0 1 0.853333-6.314667c7.594667-32.298667 17.493333-64.554667 29.44-95.786666a20.053333 20.053333 0 0 0-2.133333-13.226667l-8.234667-15.957333A426.922667 426.922667 0 0 1 85.333333 511.914667C85.333333 276.693333 276.650667 85.333333 511.786667 85.333333z m-0.469334 375.893334a50.773333 50.773333 0 0 1 0 101.461333 50.773333 50.773333 0 0 1 0-101.504z m187.861334 0a50.773333 50.773333 0 0 1 0 101.461333 50.773333 50.773333 0 0 1 0-101.504z m-375.765334 0a50.773333 50.773333 0 1 1-0.042666 101.546666 50.773333 50.773333 0 0 1 0.042666-101.546666z" fill="#fe6701" p-id="1710"></path></svg>